<svg xmlns="http://www.w3.org/2000/svg" viewBox="0 0 100 100">
  <defs>
    <linearGradient id="grad1" x1="0%" y1="0%" x2="100%" y2="100%">
      <stop offset="0%" style="stop-color:#3182CE;stop-opacity:1" />
      <stop offset="100%" style="stop-color:#2C5282;stop-opacity:1" />
    </linearGradient>
  </defs>
  
  <!-- Background circle -->
  <circle cx="50" cy="50" r="48" fill="url(#grad1)" stroke="#2C5282" stroke-width="2"/>
  
  <!-- ETX letters stylized as file/document -->
  <g fill="white" font-family="Arial, sans-serif" font-weight="bold">
    <!-- E -->
    <path d="M 25 35 L 25 65 L 40 65 L 40 60 L 30 60 L 30 52 L 38 52 L 38 48 L 30 48 L 30 40 L 40 40 L 40 35 Z"/>
    
    <!-- T -->
    <path d="M 43 35 L 43 40 L 48 40 L 48 65 L 53 65 L 53 40 L 58 40 L 58 35 Z"/>
    
    <!-- X -->
    <path d="M 62 35 L 67 43 L 72 35 L 78 35 L 70 50 L 78 65 L 72 65 L 67 57 L 62 65 L 56 65 L 64 50 L 56 35 Z"/>
  </g>
  
  <!-- Small accent line at bottom -->
  <rect x="20" y="75" width="60" height="3" rx="1.5" fill="white" opacity="0.8"/>
</svg>

